<svg xmlns="http://www.w3.org/2000/svg" width="32" height="32" viewBox="0 0 24 24" fill="none" stroke="#2B5C8A" stroke-linecap="round" stroke-linejoin="round">
  <!-- Left page -->
  <path d="M2 3h6a4 4 0 0 1 4 4v14a3 3 0 0 0-3-3H2z" stroke-width="1.5"/>
  <!-- Right page -->
  <path d="M22 3h-6a4 4 0 0 0-4 4v14a3 3 0 0 1 3-3h7z" stroke-width="1.5"/>
  <!-- Left page lines -->
  <line x1="4.5" y1="8" x2="8.5" y2="8" stroke-width="0.9"/>
  <line x1="4.5" y1="11" x2="9" y2="11" stroke-width="0.9"/>
  <line x1="4.5" y1="14" x2="8" y2="14" stroke-width="0.9"/>
  <!-- Right page lines -->
  <line x1="15.5" y1="8" x2="19.5" y2="8" stroke-width="0.9"/>
  <line x1="15" y1="11" x2="19.5" y2="11" stroke-width="0.9"/>
  <line x1="16" y1="14" x2="19.5" y2="14" stroke-width="0.9"/>
</svg>
