<svg viewBox="210 0 810 730" version="1.0" xmlns="http://www.w3.org/2000/svg">
  <path d="m222.05 712.15 0.013-6.8268c0.043-22.33 10.672-46.276 28.371-63.916 19.497-19.432 40.222-31.326 102.62-58.89 47.194-20.85 77-35.362 77-37.491 0-2.8374-7.3606-16.857-19.442-37.029-16.308-27.231-20.058-35.083-20.058-42 0-3.8575 0.7442-6.9932 2.4918-10.5 3.8631-7.7514 20.269-23.387 40.258-38.368 9.7625-7.3166 17.75-13.712 17.75-14.212 0-0.69822-10.653-15.777-12.593-17.825-0.2108-0.22258-3.4681 1.6466-7.2385 4.1537-16.964 11.28-28.825 14.782-43.196 12.751-20.146-2.846-32.818-15.838-36.666-37.591-2.8548-16.139 0.9609-37.362 9.7849-54.423l3.8863-7.5142-3.9644-9.1955c-5.5084-12.777-8.0151-23.023-8.0033-32.715 0.012-9.6621 2.0724-14.772 9.8556-24.439 6.5626-8.1511 6.5177-7.4581 2.0184-31.123-2.0838-10.96-3.0007-19.028-3.1303-27.545-0.1746-11.478-0.055-12.265 2.546-16.703 1.5011-2.5614 5.3617-6.6828 8.5791-9.1585 6.9004-5.3098 9.1214-9.4145 9.1214-16.858 0-8.4669 1.6778-15.583 5.5219-23.422 6.0732-12.384 17.681-22.298 40.608-34.683l8.6303-4.6622 2.1957-9.5019c4.8097-20.814 12.592-30.239 33.285-40.312 35.895-17.474 65.443-19.784 86.858-6.7927l5.5997 3.3971 6.9003-2.9502c14.972-6.4011 34.46-10.843 60.755-13.849 31.882-3.6442 41.951-2.4988 53.29 6.0618 4.8594 3.6688 16.528 16.994 17.54 20.031 0.2638 0.79154 2.5523 0.0752 6.8559-2.146 5.6367-2.9093 7.4361-3.3388 14.12-3.3704 6.9442-0.03281 8.0656 0.2478 12 3.0027 2.447 1.7135 5.7447 5.4209 7.5605 8.5 1.7712 3.0036 3.5712 6.0321 4 6.73 0.603 0.98157 1.7985 0.75513 5.2795-1 3.6918-1.8614 6.1303-2.2689 13.578-2.2689 8.7 0 9.4425 0.18089 17.85 4.3481 14.576 7.2243 28.17 21.653 36.029 38.241 7.4618 15.749 9.3474 31.537 5.5432 46.411-1.1 4.301-2 8.1578-2 8.5708 0 0.41295 2.0151 1.7263 4.4779 2.9186 15.845 7.6703 25.49 33.438 29.55 78.943 1.3655 15.304 0.8948 18.993-4.6367 36.339-5.3162 16.671-5.4958 19.536-1.4135 22.554 8.2002 6.0626 15.833 14.364 18.3 19.902 7.7924 17.494 7.6292 46.694-0.3489 62.442-5.9277 11.7-19.196 24.246-28.354 26.81-7.6778 2.1497-19.166 0.80767-33.925-3.9629-7.0673-2.2844-13.386-3.9475-14.042-3.6958-2.654 1.0184-13.873 19.678-11.833 19.681 0.3988 6e-4 8.8252 4.3116 18.725 9.5801 29.606 15.756 43.307 25.926 47.076 34.947 2.0455 4.8957 1.7543 14.19-0.693 22.116-1.1641 3.7704-5.2676 13.605-9.1188 21.855-13.999 29.988-27.764 61.021-27.764 62.591 0 1.8252 5.8973 4.7062 46.5 22.717 75.056 33.293 109.09 51.566 126.77 68.056 10.291 9.599 20.417 26.242 25.334 41.636 4.0333 12.628 5.3753 20.879 6.0586 37.25l0.6365 15.25H222.05zm294.3-50.488c-0.1247-1.7701-3.4034-7.2133-8.734-14.5-4.6939-6.4164-13.335-18.866-19.203-27.666s-13.691-20.5-17.384-26c-3.6937-5.5-8.621-13.15-10.95-17-4.6206-7.6396-9.6953-13.5-11.69-13.5-0.6977 0-1.7768 0.94958-2.398 2.1102-0.9557 1.7858-0.3715 3.5943 3.8009 11.766 6.2946 12.328 20.69 35.783 38.783 63.192 15.237 23.081 17.337 25.199 24.475 24.685 3.1719-0.22861 3.4813-0.51794 3.3002-3.0862zm102.49 0.74384c15.924-3.285 28.871-9.0805 34.701-15.534 5.1685-5.721 5.2971-7.6747 1.0256-15.578-5.7829-10.7-5.6749-10.602-10.356-9.3418-4.6788 1.2599-7.093 4.5824-9.5235 13.107-0.8723 3.0596-2.6361 7.1096-3.9194 9l-2.3334 3.4372-10.594-0.0963c-9.0564-0.0823-11.298-0.44521-15.443-2.5-6.4906-3.2176-6.7279-5.4522-1.2141-11.434 6.1457-6.6674 9.0491-7.9582 14.48-6.4376 3.7336 1.0453 4.7103 0.98487 6.8615-0.42465 5.565-3.6463 11.063-19.306 10.265-29.239-0.8961-11.163-6.7552-17.11-10.232-10.386-1.2839 2.4827-1.4717 4.7662-0.9354 11.375 0.5398 6.6528 0.3518 8.8858-0.9618 11.426-2.9435 5.6922-6.7233 6.4468-16.112 3.2166-13.38-4.6033-19.5-1.0258-19.5 11.399 0 15.398 11.32 35.456 21.791 38.613 3.7913 1.1429 3.4648 1.1592 12.001-0.60166zm86.027-4.085c14.155-9.749 36.942-41.552 43.223-60.325 1.3984-4.1794 2.3655-10.151 2.7089-16.727 0.4725-9.0482 0.3358-10.303-1.1859-10.887-2.3795-0.91309-3.8686 1.0231-6.6246 8.6135-5.704 15.709-27.612 41.966-41.94 50.265-3.575 2.0706-10.325 4.9256-15 6.3445-9.1095 2.7647-12 4.5919-12 7.5856 0 3.2319 3.676 9.2797 8.0329 13.216 8.4551 7.6387 13.82 8.0893 22.786 1.9141zm-127.63-3.9918c2.8246-2.5562 2.1823-6.5388-2.5323-15.701-7.2666-14.122-10.52-17.826-19.908-22.663-17.822-9.1832-29.868-20.477-48.231-45.219-6.9721-9.3944-11.594-14.75-12.73-14.75-2.7187 0-2.2561 3.407 2.2281 16.412 13.91 40.339 31.006 64.05 55.292 76.685 15.216 7.916 21.512 9.1899 25.881 5.2362zm0.9625-48.427c6.3174-4.0539 22.999-21.586 29.534-31.039 9.7016-14.034 12.308-20.971 8.9309-23.774-0.7633-0.63344-6.2758-1.5832-12.25-2.1107-25.459-2.2476-43.822-11.382-67.02-33.337-10.988-10.399-19.531-22.596-27.768-39.646-8.9622-18.551-7.3122-19.565 8.2604-5.0786 22.249 20.697 40.492 34.801 52.637 40.695l6.9718 3.3833h20.597c23.156 0 28.017-0.86945 35.089-6.2756 5.7433-4.3904 8.8703-10.564 8.8703-17.514 0-9.9889-5.7265-15.147-19.316-17.399-5.163-0.85553-8.1837-0.7444-15.308 0.56317-11.259 2.0665-14.905 2.0228-19.876-0.23852-11.373-5.1733-6.98-12.352 8.5753-14.014 5.4943-0.58708 8.911-0.20339 19.542 2.1945 11.151 2.5154 13.448 2.7531 17.088 1.7683 5.6392-1.5258 10.008-5.3943 11.422-10.113 1.4884-4.9676-0.4709-8.3167-6.4546-11.033-5.7818-2.6251-9.4267-2.4122-18.172 1.0618-8.6742 3.4458-12.746 3.7054-19.65 1.253-4.9012-1.7408-4.9462-1.7372-12.674 1-4.2654 1.5108-8.7003 2.747-9.8555 2.747s-4.8512-2.025-8.2132-4.5-6.3755-4.5-6.6965-4.5c-0.3211 0-2.5323 1.3993-4.9138 3.1096-4.3016 3.0892-4.3466 3.0974-6.8491 1.25-2.8292-2.0886-2.7262-4.1408 0.535-10.65 2.7448-5.4785 5.7399-6.2893 11.831-3.2028 7.011 3.5528 9.9721 3.2655 15.48-1.5016 8.1611-7.0634 12.282-6.6501 20.659 2.072 7.3891 7.6934 9.1304 7.7411 16.365 0.44814 8.1246-8.1898 12.533-8.4826 22.982-1.5263 3.3 2.197 6.737 3.9959 7.6377 3.9977 0.9008 2e-3 4.5947-1.3806 8.2088-3.0718 3.614-1.6912 7.5866-2.9287 8.8279-2.75 3.6193 0.52113 6.8256 6.2756 6.8256 12.25 0 7.851 1.7044 9.5746 9.4681 9.5746h6.3547l5.8386-6.4018c9.9621-10.923 27.597-41.288 30.838-53.098 1.0448-3.8072 1.9365-12.761 2.44-24.5 0.7-16.324 1.162-19.785 3.9268-29.423 3.2876-11.461 3.791-17.749 2.1368-26.69-1.0028-5.4202-4.8154-10.408-7.3634-9.6332-2.6981 0.82039-5.64 9.1047-5.64 15.882 0 5.8562-0.3504 7.1312-2.75 10.006-4.8665 5.8301-8.6 8.7813-15.634 12.358-7.979 4.0573-11.087 4.3456-14.301 1.3264-2.833-2.6615-2.9249-5.3842-0.3145-9.3257 2.6379-3.9831 2.5709-4.2601-1.5-6.2014-6.3471-3.0267-4.1777-5.6394 6.5381-7.8737 3.9924-0.83245 7.9796-1.9067 8.8604-2.3872 2.7127-1.4798 7.794-7.3342 10.001-11.523 3.3242-6.3081 2.686-9.1675-2.8724-12.869-3.7256-2.4806-4.5163-2.0365-4.6458 2.6098-0.3873 13.892-13.212 23.184-25.127 18.206-7.1009-2.9669-11.254-9.2122-11.254-16.922 0-5.5978-1.317-5.8283-8.1709-1.4302-3.0369 1.9488-5.0898 4.0808-5.4989 5.7109-0.5708 2.2741 0.185 3.3608 6.0089 8.6403 3.664 3.3215 6.6616 6.801 6.6613 7.7324-6e-4 2.3709-3.8522 4.8067-7.6005 4.8067-4.9452 0-5.3749 1.4562-3.2462 11 1.0428 4.675 2.2587 14.433 2.7021 21.684 0.8745 14.301 0.2095 12.515 8.4622 22.726 0.9999 1.2371 2.2418 4.1353 2.7597 6.4405 0.7742 3.4458 0.5974 4.8545-0.9943 7.9204-2.106 4.0565-6.3065 8.6807-10.492 11.55-1.4609 1.0016-3.7831 3.6062-5.1604 5.7881-3.6488 5.78-5.6943 6.3963-14.906 4.4912-10.806-2.2347-14.05-2.0646-17.993 0.94329-5.1386 3.9194-9.6015 2.1598-13.398-5.2825-1.1875-2.3276-3.1878-4.9061-4.4452-5.73-2.0848-1.366-2.9427-1.2638-9.7372 1.1597-8.9902 3.2068-11.354 2.822-17.507-2.8497-5.4395-5.014-7.3397-10.193-5.305-14.458 1.0224-2.1433 2.1931-2.9625 4.5621-3.1923 2.6888-0.26085 3.434 0.16888 4.7687 2.75 0.8701 1.6825 1.8358 3.0592 2.146 3.0592s3.3361-2.473 6.7243-5.4955c3.5832-3.1965 7.1016-5.4974 8.4103-5.5 4.0438-8e-3 8.447 6.0736 9.7959 13.53 1.0377 5.7363 2.1879 7.4563 6.0712 9.0788 7.0422 2.9424 15.256-1.7161 17.461-9.9026 0.8878-3.2969 0.6878-5.5646-1.1442-12.979-2.3428-9.4815-2.3323-8.0948-0.305-40.232 0.568-9.0029 0.3271-11.246-2.4164-22.5-4.0608-16.657-4.5581-21.279-3.2792-30.474 1.5416-11.083 3.8009-15.499 10.721-20.954 7.0159-5.5305 21.045-12.552 31.346-15.689 14.005-4.2647 29.636-2.3052 41.468 5.1987 3.63 2.3021 5.3656 2.8836 6.4932 2.1757 2.3351-1.466 4.9248-9.148 4.9748-14.757 0.056-6.2539-2.3754-11.591-11.761-25.817-6.8402-10.368-10.175-18.107-10.174-23.615 1e-4 -1.4127 0.9048-8.1128 2.0105-14.889 2.2514-13.799 1.7513-20.908-2.0187-28.696-4.3855-9.0593-14.934-18.458-23.666-21.086-3.7075-1.1158-6.8566-1.0944-19.621 0.13365-25.115 2.4162-26.521 2.2863-45.561-4.2109-14.624-4.9902-17.615-5.6862-24.644-5.7337-9.5938-0.0648-37.431 2.9329-46.472 5.0046-21.47 4.9194-37.923 20.872-44.84 43.476-2.6938 8.8029-4.4889 24.605-3.667 32.28 0.8663 8.0891-0.1718 11.756-8.5355 30.152-3.7508 8.25-7.3603 17.025-8.021 19.5-0.9065 3.3955-0.9882 12.723-0.3327 38 1.2571 48.484 1.2193 49.887-1.4607 54.224-1.2333 1.9954-4.2921 4.8294-6.7974 6.2976-7.1842 4.2102-8.6278 10.031-6.3661 25.668 1.414 9.7765 3.4113 13.304 8.8714 15.667 5.4661 2.3661 6.7572 1.8697 11.19-4.3021 6.0484-8.4222 8.5623-7.0353 8.1431 4.4924-0.4531 12.462 5.349 34.615 13.897 53.061l4.9159 10.608-3.9411 11.392c-2.1676 6.2655-5.5926 17.65-7.6109 25.298-5.0514 19.142-4.7798 25.191 1.7442 38.847 16.011 33.514 35.196 56.474 63.626 76.148 13.951 9.6543 16.824 10.305 24.305 5.5047zm9.9795-250.57c-4.5942-5.5736-10.06-16.547-10.708-21.496-0.5042-3.8542-0.089-5.1263 3.7022-11.341 3.3923-5.561 4.3574-8.182 4.6947-12.75 0.541-7.3267-1.0012-7.5668-8.027-1.25-4.0622 3.6522-5.7152 4.5-8.7745 4.5-6.0801 0-6.7388-1.9869-2.5787-7.7775 1.9512-2.7158 4.2137-6.5322 5.0279-8.4809 1.3786-3.2993 1.3387-3.7233-0.5798-6.1623-1.1332-1.4406-3.4303-3.3276-5.1047-4.1935-3.9043-2.019-4.8429-0.7209-4.0879 5.6538 0.3896 3.2893 0.04 5.7257-1.1967 8.3309-2.2633 4.7696-9.8442 11.417-13.885 12.175-5.0403 0.94557-13.881-2.88-18.161-7.8582-3.4458-4.0087-3.5854-4.4643-3.2741-10.687 0.306-6.1181 0.1911-6.519-1.955-6.8235-2.6511-0.37613-7.8851 4.6415-8.8494 8.4836-1.3663 5.4437 5.1069 15.34 10.034 15.34 2.3992 0 1.9207 2.7658-0.9804 5.6669-2.2151 2.215-3.2047 2.5052-7.0623 2.0704-5.7095-0.64354-8.6895-3.3795-12.784-11.737l-3.1848-6.5-4.9754 0.30018c-4.6026 0.27768-5.3019-1e-3 -9.3297-3.7196l-4.3542-4.0198 0.5078-7.2804c0.7177-10.289 3.8208-17.653 10.46-24.824 12.675-13.691 38.236-20.219 60.607-15.479 9.7266 2.061 23.937 10.411 35.133 20.643 6.2231 5.6875 7.0174 7.151 8.9907 16.565 1.2194 5.8174 1.1108 7.1286-1.6982 20.515l-3.0009 14.3 2.1527 13c2.3995 14.49 2.5604 19.367 0.8079 24.488-1.6261 4.7516-3.8538 4.8544-7.5672 0.34937zm-42.683-60.56c2.2479-3.2093 2.0206-8.4588-0.4228-9.7665-2.8691-1.5355-7.013-0.16104-8.0951 2.6851-2.5493 6.7053 4.6115 12.659 8.5179 7.0814zm-34.529-14.277c4.4971-4.2895 6.4615-5.5 8.9257-5.5 2.9443 0 3.1596 0.23849 3.1596 3.5 0 1.925 0.1125 3.4947 0.25 3.4881 0.1375-7e-3 2.725-0.67619 5.75-1.4881s7.6771-1.4816 10.338-1.4881l4.8379-0.0119-1.3516-8h3.641c2.2359 0 5.0606 0.96474 7.32 2.5 4.7172 3.2054 5.2148 3.1486 5.2148-0.59571 0-6.532-7.0333-12.982-18.407-16.88-6.6929-2.2939-10.661-2.49-19.16-0.94719-9.9139 1.7997-17.772 7.6884-22.286 16.701-3.1289 6.2473-3.3531 8.6917-1.0642 11.602 3.2198 4.0933 6.2286 3.418 12.831-2.8794zm175.25 322.19c11.99-5.9506 29.266-17.283 34-22.304 10.774-11.426 24.057-33.129 28.347-46.314 2.3015-7.074 2.1374-12.905-0.9589-34.073-3.4031-23.266-4.4318-28.016-6.2154-28.7-2.1503-0.82518-3.7452 1.2684-7.0626 9.2713-4.3085 10.394-9.5476 17.827-19.714 27.971-16.855 16.817-48.664 35.179-68.261 39.403-15.313 3.3005-17.753 4.22-18.124 6.8276-0.3324 2.3419 12.312 27.717 17.748 35.619 3.464 5.0347 9.5197 10.652 15.916 14.763 6.5761 4.2269 11.939 3.6839 24.324-2.4626zm-38.356-208.95c2.5278-2.0962 4.3597-7.6878 3.6358-11.098-0.792-3.7307-2.894-6.3099-6.7802-8.3196l-2.8395-1.4684 0.688 6.4253c0.532 4.9675 0.3249 7.1277-0.9128 9.5211-0.8805 1.7027-1.6009 4.0744-1.6009 5.2705 0 1.9066 0.3888 2.0969 3.1547 1.5437 1.7351-0.34701 3.8298-1.1908 4.6549-1.875zm-243.17-34.837c3.7477-1.8578 6.8518-4.8993 13.606-13.332 4.9659-6.2001 8.75-11.865 8.75-13.098 0-1.5947-1.0292-2.578-3.8639-3.6915l-3.8639-1.5178-4.2792 4.9678c-7.5989 8.8218-14.258 11.05-19.464 6.5144-1.912-1.666-2.8287-3.7881-3.5321-8.1763-1.1123-6.9397-1.791-7.8424-5.5656-7.4019-2.4134 0.28166-3.0855 1.1078-4.7419 5.8282-1.0614 3.025-2.155 8.4493-2.4302 12.054-0.5005 6.5565 0.8927 11.041 4.9679 15.992 4.6373 5.6335 11.538 6.2625 20.417 1.861zm422.08-35.136c3.4496-1.1283 8.0738-3.6188 10.372-5.5862 4.1475-3.5501 4.1476-3.5505 3.6212-9.3567-0.3636-4.0093-1.5881-7.7442-3.9562-12.067-5.0551-9.2283-7.7797-9.0238-15.916 1.1944-10.226 12.844-26.404 13.252-38.68 0.97615-5.5933-5.5933-7.6098-10.257-7.5367-17.432 0.1127-11.065 7.2814-21.096 17.543-24.546 7.1473-2.4031 8.1674-4.9914 4.4601-11.317-5.2752-9.0015-16.132-13.806-22.606-10.004-5.991 3.5179-13.518 17.236-16.124 29.385-2.5356 11.823 7.9884 35.507 20.96 47.169 6.144 5.524 16.979 11.326 24.782 13.271 6.9445 1.731 14.267 1.1958 23.08-1.6868zm-140.53-30.292c0.859-1.8854 0.7474-2.9238-0.5229-4.8624-2.4144-3.6848-5.6504-4.3574-7.8564-1.6331-2.4782 3.0604-2.2734 5.6458 0.6812 8.6005 2.0694 2.0694 2.8429 2.3062 4.5496 1.3928 1.1309-0.60526 2.5477-2.1793 3.1485-3.4978zm25.533-15.73c0.4387-3.8921 0.1234-4.8524-2.6191-7.9759-3.5897-4.0884-7.8979-6.3469-16.057-8.4175-5.135-1.3032-6.5191-1.2902-12.59 0.11765-7.608 1.7644-9.459 2.8781-9.459 5.691 0 1.3919-1.7454 2.7025-6.3514 4.769-6.2432 2.8011-7.6486 4.3042-7.6486 8.1798 0 3.1262 2.0106 3.1082 10.793-0.0968 9.5085-3.4702 12.742-3.6784 20.276-1.3059 7.3825 2.3248 7.4685 2.3011 7.1013-1.9604-0.2811-3.2637-0.046-3.75 1.8129-3.75 1.2615 0 4.2607 2.1742 7.3266 5.3112 2.8549 2.9212 5.5791 4.9853 6.0537 4.587 0.4747-0.39835 1.0875-2.7155 1.3618-5.1491zm73.431-75.499c0.2482-5.983-0.087-8.3165-2.2641-15.75-3.5527-12.132-8.6097-21.403-15.353-28.147-5.7572-5.7574-6.776-6.3387-16.092-9.1816-10.615-3.2393-11.701-3.4744-15.196-3.2903-1.6329 0.086-2.25 0.73676-2.25 2.3727 0 1.5602 2.2929 4.2388 7.4468 8.6997 9.0396 7.824 12.704 12.578 19.542 25.357 8.3737 15.648 15.749 23.675 21.762 23.685 1.9064 3e-3 2.2737-0.56889 2.4055-3.7463zm-339.99-45.462c5.6715-3.1876 7.9133-7.4603 8.9702-17.096 1.1165-10.179 3.9973-16.135 9.7611-20.183 3.9905-2.8022 4.8466-2.9968 12.445-2.8297 4.4881 0.0987 9.2557 0.32371 10.595 0.5 2.1218 0.27934 2.5716-0.23024 3.5-3.9652 1.4203-5.7139 12.26-19.124 20.224-25.02 11.13-8.2393 17.506-9.589 31.526-6.6733 12.059 2.5078 16.869 4.4278 26.388 10.533 10.983 7.0437 13.223 7.7416 16.455 5.1249 3.6396-2.9472 1.6452-5.8378-7.9553-11.53-9.3078-5.5183-12.072-8.0864-12.072-11.215 0-7.5152 14.064-6.9302 30.44 1.2661 8.0079 4.0081 19.56 11.91 19.56 13.379 0 2.3144 7.1397 15.761 8.6831 16.353 1.1303 0.43375 2.7-0.35341 4.707-2.3605 2.5989-2.5989 3.068-3.9026 3.4258-9.5206 0.8212-12.897-1.5012-16.945-14.692-25.609-11.319-7.435-14.554-8.1476-26.703-5.8814-5.4567 1.0179-11.762 1.8707-14.011 1.8952-7.0874 0.0771-19.33-3.6693-25.853-7.9112-18.165-11.813-27.292-12.637-45.057-4.0704-9.8949 4.7719-16.142 9.9093-15.161 12.467 0.6335 1.651 1.6967 1.7401 12.992 1.0886l12.302-0.70954 3.1838 2.679c3.9416 3.3166 3.9682 4.5382 0.1922 8.8388-4.9685 5.6589-13.272 10.757-19.708 12.1-15.552 3.2455-49.214 29.983-61.311 48.699-6.9119 10.694-7.6433 17.359-2.2274 20.298 3.6982 2.0066 4.8166 1.9297 9.4006-0.64659zm275.18-23.579c7.9929-5.3944 12.723-7.405 18.694-7.9464 7.0183-0.6364 14.716 1.7053 19.546 5.946 2.409 2.1152 3.5223 2.5938 3.8128 1.6393 0.2257-0.74146 0.6663-2.1405 0.9791-3.109 2.6889-8.3252-12.71-22.167-27.053-24.318-5.7017-0.85502-18.978 1.0068-30.208 4.2363-7.892 2.2696-8.4928 2.3119-10.25 0.72167-4.0344-3.6511-1.2626-16.371 5.847-26.832 5.4838-8.0687 18.562-22.183 21.384-23.078 2.8789-0.91373 2.3929-4.3076-0.7291-5.0911-5.4668-1.3721-27.888 8.4702-34.778 15.267-4.4886 4.4277-8.1557 11.776-9.8081 19.654-1.5389 7.337 0.6184 13.094 7.3143 19.519 4.2527 4.0804 5.0233 5.4534 5.9851 10.663 1.4425 7.8144 3.1287 10.901 7.6784 14.055 3.265 2.2635 4.565 2.55 10.252 2.2594 5.3759-0.27468 7.3545-0.90065 11.332-3.585z" fill="#2B5C8A"/>
</svg>
